<svg xmlns="http://www.w3.org/2000/svg" width="639" height="203.18" class="css-1j8o68f" viewBox="0 0 412 131">
  <rect xmlns="http://www.w3.org/2000/svg" width="412" height="131" fill="#2b6cb0" rx="10" ry="10"/>
  <g fill="#f2fcfc">
    <path xmlns="http://www.w3.org/2000/svg" d="M106.827 69.572c-.41-1.697-1.457-3.133-2.947-4.043s-3.245-1.187-4.943-.776l-1.953.472-.158-.656c.385-.303.72-.66.964-1.08.562-.96.692-2.124.366-3.28a4.255 4.255 0 0 0-3.24-3.008 4.846 4.846 0 0 0-2.184-2.537 4.853 4.853 0 0 0-3.717-.44 4.908 4.908 0 0 0-2.766 2.039 4.228 4.228 0 0 0-3.144.76 5.042 5.042 0 0 0-4.848-.786 5.025 5.025 0 0 0-2.743 2.424 3.832 3.832 0 0 0-1.037.117 4.262 4.262 0 0 0-1.497.692 5.054 5.054 0 0 0-5.226-.634c-1.693.759-2.845 2.461-2.935 4.335-.025.522.029 1.035.158 1.528-.239.088-.47.2-.692.335-1.193.729-1.921 2.092-1.858 3.472a3.906 3.906 0 0 0 1.556 2.962 3.88 3.88 0 0 0 1.664.713l7.61 31.532-.278.067c-.292.07-.542.255-.7.509a1.135 1.135 0 0 0-.134.855l.719 2.972a3.45 3.45 0 0 0 4.156 2.538l27.254-6.586a3.416 3.416 0 0 0 2.13-1.552c.48-.785.624-1.71.409-2.604l-.719-2.974a1.129 1.129 0 0 0-1.363-.83l-.26.062-1.092-4.516 1.945-.47a6.544 6.544 0 0 0 4.819-7.891l-3.316-13.721zm-27.565.07a.396.396 0 0 1 .293-.48l15.17-3.666.284 1.176c-2.986.846-4.543 1.848-6.042 2.822-1.584 1.028-3.08 2-6.435 2.81-.912.22-1.73.356-2.518.454l-.752-3.115zm-14.578-1.24a1.644 1.644 0 0 1 .777-1.439 1.643 1.643 0 0 1 1.032-.235 1.13 1.13 0 0 0 1.056-1.754 2.734 2.734 0 0 1-.472-1.694c.048-1.033.678-1.968 1.602-2.383a2.794 2.794 0 0 1 3.388.844c.214.282.547.446.9.446h.008c.356-.002.69-.172.9-.46.282-.38.674-.64 1.132-.752.317-.076.635-.074.947.006a1.124 1.124 0 0 0 1.364-.775c.254-.862.89-1.55 1.704-1.842a2.781 2.781 0 0 1 3.17.93c.216.283.58.463.908.446.356-.003.689-.172.9-.459a1.984 1.984 0 0 1 2.386-.644 1.126 1.126 0 0 0 1.501-.636c.3-.79.936-1.373 1.742-1.6a2.606 2.606 0 0 1 2 .236 2.622 2.622 0 0 1 1.298 1.818c.101.536.568.92 1.11.92h.031c.888 0 1.673.594 1.914 1.449.158.56.107 1.102-.141 1.527-.247.422-.686.72-1.271.861l-15.547 3.756a2.636 2.636 0 0 0-1.643 1.198 2.641 2.641 0 0 0-.316 2.008l1.627 6.737c.118.484.039.986-.221 1.412-.26.427-.671.726-1.157.843a1.875 1.875 0 0 1-2.257-1.378l-1.627-6.734a2.664 2.664 0 0 0-3.206-1.96l-3.52.85a1.629 1.629 0 0 1-1.366-.282 1.64 1.64 0 0 1-.653-1.26zm3.236 3.572 2.833-.684c.215-.054.43.08.482.292l.25 1.034c-1.026.077-2.105.252-3.284.52l-.28-1.162zm36.555 29.365a1.186 1.186 0 0 1-.732.535l-27.253 6.585a1.187 1.187 0 0 1-1.43-.873l-.454-1.874 29.558-7.142.453 1.872c.074.308.024.626-.142.897zm-29.022 1.843L68.73 75.33c1.202-.27 2.275-.426 3.294-.477l.837 3.464a4.138 4.138 0 0 0 4.014 3.16c.32 0 .646-.039.97-.118 1.072-.259 1.98-.92 2.554-1.86s.749-2.05.49-3.122l-.34-1.408c.796-.11 1.618-.252 2.515-.47 3.73-.901 5.46-2.024 7.134-3.112 1.4-.908 2.736-1.772 5.343-2.521l6.735 27.833-26.823 6.483zm29.34-14.194-1.947.471-5.332-22.038 1.952-.471c1.109-.267 2.259-.088 3.235.507s1.66 1.535 1.93 2.648l3.315 13.72a4.283 4.283 0 0 1-3.153 5.163zM57.353 79.942l-.279-.067 7.611-31.534a3.886 3.886 0 0 0 1.663-.71 3.904 3.904 0 0 0 1.555-2.961c.065-1.384-.665-2.748-1.859-3.474a3.968 3.968 0 0 0-.69-.335 5.072 5.072 0 0 0 .158-1.528c-.09-1.874-1.242-3.575-2.936-4.335a5.048 5.048 0 0 0-5.226.634 4.26 4.26 0 0 0-1.498-.693 4.178 4.178 0 0 0-1.036-.117 5.026 5.026 0 0 0-2.744-2.424 5.032 5.032 0 0 0-4.848.786 4.238 4.238 0 0 0-3.145-.76 4.914 4.914 0 0 0-2.765-2.04 4.896 4.896 0 0 0-5.901 2.978 4.26 4.26 0 0 0-3.24 3.008c-.326 1.156-.195 2.323.366 3.282.245.419.58.775.965 1.078l-.16.656-1.951-.471c-3.505-.85-7.044 1.315-7.89 4.819l-3.317 13.72c-.41 1.698-.135 3.454.776 4.944s2.346 2.537 4.044 2.946l1.945.47-1.092 4.516-.26-.063a1.13 1.13 0 0 0-1.364.831l-.718 2.974a3.426 3.426 0 0 0 .409 2.604 3.416 3.416 0 0 0 2.13 1.552l27.254 6.586a3.418 3.418 0 0 0 2.604-.408 3.424 3.424 0 0 0 1.553-2.13l.718-2.972a1.13 1.13 0 0 0-.134-.855 1.135 1.135 0 0 0-.698-.507zm4.778-30.644c-1.18-.267-2.258-.443-3.284-.52l.25-1.034a.402.402 0 0 1 .479-.293l2.835.685-.28 1.162zM34.35 36.986a1.992 1.992 0 0 1 1.913-1.448h.03a1.13 1.13 0 0 0 1.111-.926 2.95 2.95 0 0 1 .052-.232 2.64 2.64 0 0 1 3.246-1.819 2.614 2.614 0 0 1 1.743 1.603 1.131 1.131 0 0 0 1.5.635 1.984 1.984 0 0 1 2.385.644c.212.287.545.456.9.459.39.002.693-.163.908-.447a2.778 2.778 0 0 1 3.17-.93c.813.293 1.45.981 1.704 1.843.172.583.773.923 1.363.775a1.968 1.968 0 0 1 2.078.748c.212.287.545.456.901.458h.008c.352 0 .686-.164.9-.446a2.791 2.791 0 0 1 3.387-.844c.924.415 1.554 1.35 1.603 2.382a2.74 2.74 0 0 1-.472 1.695 1.13 1.13 0 0 0 1.055 1.754c.364-.033.712.041 1.03.234.491.3.804.878.777 1.44a1.635 1.635 0 0 1-.655 1.259 1.632 1.632 0 0 1-1.367.282l-3.519-.851a2.662 2.662 0 0 0-3.206 1.958l-1.627 6.736a1.858 1.858 0 0 1-.843 1.156 1.872 1.872 0 0 1-2.791-2.034l1.628-6.738c.166-.689.054-1.401-.316-2.007s-.953-1.031-1.643-1.197L35.756 39.37c-.585-.142-1.024-.44-1.27-.861-.244-.423-.294-.965-.136-1.524zm1.256 4.673 15.172 3.668a.39.39 0 0 1 .245.177c.031.053.08.162.047.3l-.753 3.117a22.287 22.287 0 0 1-2.518-.454c-3.356-.81-4.852-1.782-6.436-2.81-1.498-.974-3.055-1.976-6.042-2.822l.285-1.176zM25.538 65.15a4.283 4.283 0 0 1-3.154-5.163l3.316-13.72a4.25 4.25 0 0 1 1.93-2.648 4.266 4.266 0 0 1 3.235-.507l1.952.47-5.333 22.04-1.946-.472zM34.79 45.03c2.607.749 3.944 1.612 5.343 2.521 1.673 1.087 3.404 2.21 7.135 3.112.897.218 1.72.36 2.514.47l-.34 1.409a4.132 4.132 0 0 0 4.02 5.099 4.1 4.1 0 0 0 2.145-.608 4.107 4.107 0 0 0 1.861-2.553l.837-3.464c1.02.052 2.092.206 3.294.477l-6.722 27.852-26.822-6.482L34.79 45.03zm20.481 38.72a1.189 1.189 0 0 1-1.429.871l-27.254-6.585c-.307-.075-.567-.265-.732-.535s-.214-.588-.14-.895l.452-1.876 29.557 7.143-.454 1.876zM64.105 21.112l-.103 5.93a1.131 1.131 0 0 0 1.11 1.149h.02c.615 0 1.119-.494 1.13-1.11l.103-5.929a1.131 1.131 0 0 0-1.11-1.15c-.655-.039-1.14.486-1.15 1.11zM73.846 21.987l-3.053 5.085a1.13 1.13 0 0 0 1.937 1.163l3.054-5.084a1.13 1.13 0 0 0-1.938-1.164zM54.872 21.637a1.13 1.13 0 0 0-.359 1.557l3.14 5.03a1.128 1.128 0 1 0 1.916-1.195l-3.14-5.03a1.13 1.13 0 0 0-1.557-.362z"/>
  </g>
  <path fill="#fff" d="M146.916 23.088c7.524 0 12.324 5.643 12.324 12.606 0 7.074-4.8 12.493-12.324 12.493h-9.209v14.936h-6.71V23.088h15.918zm-1.068 19.372c4.492 0 6.85-2.751 6.85-6.85 0-3.958-2.358-6.85-6.85-6.85h-8.142v13.7h8.142zm38.322-7.58h6.457v28.243h-6.148l-.168-3.537c-1.881 2.582-4.941 4.07-8.703 4.07-6.289 0-10.163-3.453-10.163-9.77V34.88h6.513v17.602c0 4.267 2.583 5.896 5.587 5.896 3.565 0 6.597-2.022 6.625-7.271V34.88zm31.387-.534c7.3 0 13.364 5.643 13.364 14.683 0 9.096-6.036 14.74-13.364 14.74-4.183 0-7.776-1.966-9.433-5.166l-.168 4.52h-6.176V20h6.429l.028 19.288c1.712-3.117 5.222-4.942 9.32-4.942zm-1.459 23.949c4.66 0 8.367-3.594 8.367-9.265 0-5.643-3.706-9.236-8.367-9.236s-8.338 3.818-8.338 9.236c0 5.447 3.65 9.265 8.338 9.265zm61.904 6.681-5.756 2.078-5.362-5.896c-3.004 1.629-6.541 2.499-10.387 2.499-11.595 0-20.383-7.889-20.383-20.578 0-12.661 8.787-20.55 20.383-20.55s20.382 7.888 20.382 20.55c0 6.092-2.022 11.061-5.418 14.598zM240.825 43.08c0 9.377 6.008 14.627 13.673 14.627 7.692 0 13.672-5.25 13.672-14.627 0-9.012-5.98-14.29-13.672-14.29-7.665 0-13.673 5.278-13.673 14.29zm60.164-8.197h6.457v28.242h-6.148l-.168-3.538c-1.881 2.583-4.941 4.071-8.703 4.071-6.289 0-10.163-3.453-10.163-9.77V34.88h6.513v17.603c0 4.267 2.583 5.895 5.587 5.895 3.565 0 6.597-2.02 6.625-7.27V34.88zm41.242 13.643-.084 1.629H320.67c.252 5.615 3.874 8.31 8.17 8.31 3.144 0 5.698-1.6 6.99-4.436l5.895 1.01c-1.965 5.447-6.85 8.62-12.83 8.62-8.674 0-14.57-5.39-14.57-14.655S320.362 34.32 328.7 34.32c7.776 0 13.503 4.548 13.531 14.206zm-13.504-9.405c-3.959 0-6.878 1.91-7.777 6.205h14.795c-.505-4.183-3.284-6.205-7.018-6.205zm29.814 24.537c-6.148 0-10.836-2.611-11.79-7.833l5.474-1.544c.758 3.2 3.144 4.745 6.316 4.745 2.33 0 4.857-.843 4.801-3.566-.056-3.2-4.155-3.593-8.675-5.11-3.65-1.178-7.187-2.835-7.187-7.748 0-5.67 4.688-8.226 10.528-8.226 5.334 0 9.77 2.162 10.752 7.412l-5.11 1.207c-.757-2.976-3.003-4.155-5.614-4.155-2.33 0-4.604.899-4.604 3.229 0 2.695 3.312 3.256 6.906 4.211 4.408 1.151 9.236 2.836 9.236 8.815 0 6.261-5.221 8.563-11.033 8.563zm27.54-.534c-5.052 0-8.084-2.975-8.084-8.253V39.934h-5.643V34.88h1.937c2.976 0 4.351-1.179 4.351-4.857v-4.38h5.896v9.237h6.148v5.054h-6.148v14.261c0 2.64 1.432 3.93 3.593 3.93h2.555v4.998h-4.604z"/>
  <path fill="#f2fcfc" d="M136.814 100.267c-3.57 0-6.281-1.714-6.81-4.743l3.135-.728c.282 1.914 1.796 2.947 3.792 2.947 1.573 0 2.935-.669 2.923-2.324-.023-1.75-2.007-2.278-4.156-2.9-2.524-.751-5.142-1.62-5.142-4.72 0-3.123 2.56-4.813 5.823-4.813 2.947 0 5.8 1.22 6.458 4.309l-2.936.727c-.352-1.737-1.655-2.524-3.357-2.524-1.515 0-2.912.646-2.912 2.243 0 1.467 1.75 1.937 3.745 2.5 2.583.752 5.624 1.68 5.624 5.037 0 3.51-2.947 4.99-6.187 4.99zm12.403-14.24a1.764 1.764 0 0 1-1.761-1.749c0-.974.798-1.75 1.76-1.75.94 0 1.75.776 1.75 1.75 0 .963-.81 1.75-1.75 1.75zm-1.503 14.006V88.14h2.947v11.893h-2.947zm15.114-12.128c3.111 0 5.67 2.325 5.67 6.2s-2.559 6.198-5.67 6.198c-1.643 0-3.1-.716-3.815-1.937v7.525h-2.935V88.14h2.794l.082 1.808c.693-1.292 2.172-2.043 3.874-2.043zm-.646 9.944c1.867 0 3.382-1.409 3.382-3.745s-1.515-3.733-3.382-3.733c-1.913 0-3.404 1.526-3.404 3.733 0 2.22 1.49 3.745 3.404 3.745zm12.896 6.48h-2.101l1.468-7.548h3.017zm21.284-4.061c-3.569 0-6.28-1.714-6.81-4.743l3.135-.728c.282 1.914 1.797 2.947 3.793 2.947 1.573 0 2.935-.67 2.923-2.325-.024-1.75-2.008-2.277-4.156-2.9-2.524-.751-5.142-1.62-5.142-4.72 0-3.122 2.559-4.813 5.823-4.813 2.947 0 5.8 1.221 6.457 4.309l-2.935.728c-.352-1.738-1.655-2.524-3.358-2.524-1.514 0-2.911.645-2.911 2.242 0 1.468 1.749 1.937 3.745 2.5 2.582.752 5.623 1.68 5.623 5.037 0 3.51-2.947 4.99-6.187 4.99zm20.28-3.57c0 1.656.141 2.49.305 3.018v.317h-2.782l-.282-1.338c-.904 1.103-2.418 1.573-3.815 1.573-1.89 0-3.663-.88-3.663-3.3 0-2.453 1.796-3.286 4.332-3.815l1.984-.41c.81-.177 1.115-.482 1.115-.998 0-1.339-1.127-1.761-2.195-1.761-1.268 0-2.254.528-2.466 1.925l-2.606-.493c.47-2.383 2.242-3.499 5.224-3.499 2.383 0 4.849.799 4.849 4.239v4.543zm-5.67 1.539c1.831 0 3.005-1.139 3.005-3.78l-2.888.74c-1.139.246-1.878.633-1.878 1.572 0 .998.786 1.468 1.76 1.468zm18.53-10.097h3.1l-4.99 11.893h-2.536l-4.942-11.893h3.087l3.135 8.559zm12.168 12.128c-3.663 0-6.352-2.325-6.352-6.199 0-3.84 2.665-6.164 6.352-6.164 3.698 0 6.351 2.325 6.351 6.164 0 3.874-2.677 6.199-6.351 6.199zm-.035-2.36c2.03 0 3.475-1.514 3.475-3.839 0-2.301-1.444-3.827-3.475-3.827-1.973 0-3.405 1.526-3.405 3.827 0 2.325 1.432 3.84 3.405 3.84zm13.635-7.819c.587-1.127 2.137-2.078 3.85-2.09v2.654c-2.453 0-3.721.833-3.721 3.404v5.976h-2.947V88.14h2.818v1.949zm9.773 14.241h-2.102l1.468-7.549h3.017zm21.284-4.062c-3.57 0-6.281-1.714-6.81-4.743l3.135-.728c.282 1.914 1.796 2.947 3.792 2.947 1.573 0 2.935-.669 2.923-2.324-.023-1.75-2.007-2.278-4.156-2.9-2.524-.752-5.142-1.62-5.142-4.72 0-3.123 2.56-4.813 5.823-4.813 2.947 0 5.8 1.22 6.457 4.308l-2.935.728c-.352-1.737-1.655-2.524-3.357-2.524-1.515 0-2.912.646-2.912 2.242 0 1.468 1.75 1.938 3.745 2.501 2.583.752 5.624 1.679 5.624 5.037 0 3.51-2.947 4.99-6.188 4.99zm16.276 0c-3.663 0-6.351-2.324-6.351-6.199 0-3.839 2.665-6.163 6.351-6.163 3.698 0 6.352 2.324 6.352 6.163 0 3.875-2.677 6.2-6.352 6.2zm-.035-2.36c2.031 0 3.475-1.514 3.475-3.839 0-2.3-1.444-3.827-3.475-3.827-1.972 0-3.405 1.526-3.405 3.827 0 2.325 1.433 3.84 3.405 3.84zm16.054 2.349c-3.628 0-6.234-2.478-6.234-6.188 0-3.698 2.606-6.163 6.234-6.163 2.888 0 5.084 1.526 5.706 4.226l-2.712.329c-.435-1.48-1.55-2.219-3.017-2.219-1.926 0-3.288 1.526-3.288 3.827 0 2.313 1.362 3.828 3.288 3.828 1.467 0 2.582-.74 3.017-2.22l2.712.33c-.622 2.712-2.877 4.25-5.706 4.25zm11.522-14.23a1.764 1.764 0 0 1-1.76-1.749c0-.974.798-1.75 1.76-1.75.94 0 1.75.776 1.75 1.75 0 .963-.81 1.75-1.75 1.75zm-1.502 14.006V88.14h2.946v11.893h-2.946zm17.744-3.334c0 1.655.141 2.489.305 3.017v.317h-2.782l-.282-1.338c-.904 1.103-2.418 1.573-3.815 1.573-1.89 0-3.663-.88-3.663-3.3 0-2.453 1.796-3.286 4.332-3.815l1.984-.41c.81-.177 1.115-.482 1.115-.998 0-1.339-1.127-1.761-2.195-1.761-1.268 0-2.254.528-2.466 1.925l-2.606-.493c.47-2.383 2.242-3.499 5.224-3.499 2.383 0 4.849.799 4.849 4.239v4.543zm-5.67 1.538c1.831 0 3.005-1.139 3.005-3.78l-2.888.74c-1.139.246-1.878.633-1.878 1.572 0 .998.786 1.468 1.76 1.468zm10.888 1.796V82h2.958v18.033h-2.958zm9.878-14.006a1.764 1.764 0 0 1-1.76-1.749c0-.974.798-1.75 1.76-1.75.94 0 1.75.776 1.75 1.75 0 .963-.81 1.75-1.75 1.75zm-1.503 14.006V88.14h2.947v11.893h-2.947zm16.817-11.893-5.588 9.604h5.47v2.289h-9.685l5.553-9.604h-5.166V88.14h9.416zm15.14 5.753-.048.728h-8.97c.118 2.219 1.574 3.299 3.311 3.299 1.28 0 2.302-.634 2.818-1.773l2.677.434c-.81 2.325-2.9 3.687-5.471 3.687-3.722 0-6.21-2.278-6.21-6.176 0-3.91 2.559-6.198 6.116-6.198 3.31 0 5.753 1.901 5.776 5.999zm-5.766-3.886c-1.644 0-2.818.833-3.158 2.653h6.01c-.163-1.76-1.302-2.653-2.852-2.653z"/>
</svg>
